<mxfile host="Electron" modified="2024-03-24T21:07:45.428Z" agent="Mozilla/5.0 (Windows NT 10.0; Win64; x64) AppleWebKit/537.36 (KHTML, like Gecko) draw.io/24.1.0 Chrome/120.0.6099.109 Electron/28.1.0 Safari/537.36" etag="km3BfBhRJ0Im2AWiZJZm" version="24.1.0" type="device">
  <diagram name="Page-1" id="eistYuY_Szmb4WJsEzcX">
    <mxGraphModel dx="305" dy="233" grid="1" gridSize="10" guides="1" tooltips="1" connect="1" arrows="1" fold="1" page="1" pageScale="1" pageWidth="827" pageHeight="1169" math="0" shadow="0">
      <root>
        <mxCell id="0" />
        <mxCell id="1" parent="0" />
        <mxCell id="ntn9nmwHEoWl3kYpG5Bi-21" style="edgeStyle=orthogonalEdgeStyle;rounded=1;orthogonalLoop=1;jettySize=auto;html=1;entryX=0;entryY=0.5;entryDx=0;entryDy=0;endArrow=none;endFill=0;strokeColor=#5ABEF0;elbow=vertical;jumpSize=6;jumpStyle=none;entryPerimeter=0;" parent="1" source="ntn9nmwHEoWl3kYpG5Bi-17" target="ntn9nmwHEoWl3kYpG5Bi-19" edge="1">
          <mxGeometry relative="1" as="geometry">
            <Array as="points">
              <mxPoint x="430" y="370" />
              <mxPoint x="430" y="470" />
            </Array>
          </mxGeometry>
        </mxCell>
        <mxCell id="ntn9nmwHEoWl3kYpG5Bi-22" style="edgeStyle=orthogonalEdgeStyle;rounded=0;orthogonalLoop=1;jettySize=auto;html=1;entryX=1;entryY=0.25;entryDx=0;entryDy=0;strokeColor=#5ABEF0;endArrow=none;endFill=0;" parent="1" source="ntn9nmwHEoWl3kYpG5Bi-18" target="ntn9nmwHEoWl3kYpG5Bi-1" edge="1">
          <mxGeometry relative="1" as="geometry" />
        </mxCell>
        <mxCell id="ntn9nmwHEoWl3kYpG5Bi-13" value="" style="endArrow=none;html=1;rounded=0;edgeStyle=orthogonalEdgeStyle;strokeColor=#5ABEF0;fillColor=#b1ddf0;" parent="1" target="ntn9nmwHEoWl3kYpG5Bi-8" edge="1">
          <mxGeometry width="50" height="50" relative="1" as="geometry">
            <mxPoint x="225.02857142857135" y="400" as="sourcePoint" />
            <mxPoint x="210" y="370" as="targetPoint" />
            <Array as="points">
              <mxPoint x="225" y="390" />
              <mxPoint x="225" y="390" />
            </Array>
          </mxGeometry>
        </mxCell>
        <mxCell id="ntn9nmwHEoWl3kYpG5Bi-14" value="" style="endArrow=none;html=1;rounded=0;edgeStyle=orthogonalEdgeStyle;strokeColor=#5ABEF0;fillColor=#b1ddf0;" parent="1" edge="1">
          <mxGeometry width="50" height="50" relative="1" as="geometry">
            <mxPoint x="284.92" y="400" as="sourcePoint" />
            <mxPoint x="284.92" y="370" as="targetPoint" />
            <Array as="points">
              <mxPoint x="284.92" y="390" />
              <mxPoint x="284.92" y="390" />
            </Array>
          </mxGeometry>
        </mxCell>
        <mxCell id="ntn9nmwHEoWl3kYpG5Bi-15" value="" style="endArrow=none;html=1;rounded=0;edgeStyle=orthogonalEdgeStyle;strokeColor=#5ABEF0;fillColor=#b1ddf0;" parent="1" edge="1">
          <mxGeometry width="50" height="50" relative="1" as="geometry">
            <mxPoint x="344.94" y="400" as="sourcePoint" />
            <mxPoint x="344.94" y="370" as="targetPoint" />
            <Array as="points">
              <mxPoint x="344.94" y="390" />
              <mxPoint x="344.94" y="390" />
            </Array>
          </mxGeometry>
        </mxCell>
        <mxCell id="ntn9nmwHEoWl3kYpG5Bi-1" value="" style="rounded=1;whiteSpace=wrap;html=1;fillColor=none;fontColor=#ffffff;strokeColor=#f00078;arcSize=7;" parent="1" vertex="1">
          <mxGeometry x="160" y="400" width="250" height="80" as="geometry" />
        </mxCell>
        <mxCell id="ntn9nmwHEoWl3kYpG5Bi-2" value="" style="rounded=1;whiteSpace=wrap;html=1;fillColor=#f00078;strokeColor=none;arcSize=12;fontColor=#FFFFFF;fontSize=15;fontFamily=Helvetica;" parent="1" vertex="1">
          <mxGeometry x="160" y="400" width="250" height="40" as="geometry" />
        </mxCell>
        <mxCell id="ntn9nmwHEoWl3kYpG5Bi-3" value="web" style="rounded=1;whiteSpace=wrap;html=1;fillColor=#E0E0E0;strokeColor=none;fontSize=10;fontColor=#1E6EB4;" parent="1" vertex="1">
          <mxGeometry x="170" y="450" width="50" height="20" as="geometry" />
        </mxCell>
        <mxCell id="ntn9nmwHEoWl3kYpG5Bi-4" value="rest" style="rounded=1;whiteSpace=wrap;html=1;fillColor=#E0E0E0;strokeColor=none;fontSize=10;fontColor=#1E6EB4;" parent="1" vertex="1">
          <mxGeometry x="230" y="450" width="50" height="20" as="geometry" />
        </mxCell>
        <mxCell id="ntn9nmwHEoWl3kYpG5Bi-5" value="soap" style="rounded=1;whiteSpace=wrap;html=1;fillColor=#E0E0E0;strokeColor=none;fontSize=10;fontColor=#1E6EB4;" parent="1" vertex="1">
          <mxGeometry x="290" y="450" width="50" height="20" as="geometry" />
        </mxCell>
        <mxCell id="ntn9nmwHEoWl3kYpG5Bi-7" value="..." style="rounded=1;whiteSpace=wrap;html=1;fillColor=#E0E0E0;strokeColor=none;fontSize=10;fontColor=#1E6EB4;" parent="1" vertex="1">
          <mxGeometry x="350" y="450" width="50" height="20" as="geometry" />
        </mxCell>
        <mxCell id="ntn9nmwHEoWl3kYpG5Bi-17" value="" style="shape=cylinder3;whiteSpace=wrap;html=1;boundedLbl=1;backgroundOutline=1;size=5.888888888888914;fillColor=#5ABEF0;strokeColor=#1e6eb4;" parent="1" vertex="1">
          <mxGeometry x="450" y="350" width="30" height="40" as="geometry" />
        </mxCell>
        <mxCell id="ntn9nmwHEoWl3kYpG5Bi-18" value="" style="shape=cylinder3;whiteSpace=wrap;html=1;boundedLbl=1;backgroundOutline=1;size=5.888888888888914;fillColor=#5ABEF0;strokeColor=#1e6eb4;" parent="1" vertex="1">
          <mxGeometry x="450" y="400" width="30" height="40" as="geometry" />
        </mxCell>
        <mxCell id="ntn9nmwHEoWl3kYpG5Bi-19" value="" style="shape=cylinder3;whiteSpace=wrap;html=1;boundedLbl=1;backgroundOutline=1;size=5.888888888888914;fillColor=#5ABEF0;strokeColor=#1e6eb4;" parent="1" vertex="1">
          <mxGeometry x="450" y="450" width="30" height="40" as="geometry" />
        </mxCell>
        <mxCell id="ntn9nmwHEoWl3kYpG5Bi-8" value="app" style="rounded=1;whiteSpace=wrap;html=1;strokeColor=none;fillColor=#5abef0;fontColor=#FFFFFF;" parent="1" vertex="1">
          <mxGeometry x="200" y="350" width="50" height="30" as="geometry" />
        </mxCell>
        <mxCell id="ntn9nmwHEoWl3kYpG5Bi-9" value="app" style="rounded=1;whiteSpace=wrap;html=1;strokeColor=none;fillColor=#5abef0;fontColor=#FFFFFF;" parent="1" vertex="1">
          <mxGeometry x="260" y="350" width="50" height="30" as="geometry" />
        </mxCell>
        <mxCell id="ntn9nmwHEoWl3kYpG5Bi-10" value="app" style="rounded=1;whiteSpace=wrap;html=1;strokeColor=none;fillColor=#5abef0;fontColor=#FFFFFF;" parent="1" vertex="1">
          <mxGeometry x="320" y="350" width="50" height="30" as="geometry" />
        </mxCell>
        <mxCell id="tKfeleK6TXPSD7IervnM-2" value="" style="shape=image;verticalLabelPosition=bottom;labelBackgroundColor=default;verticalAlign=top;aspect=fixed;imageAspect=0;image=data:image/svg+xml,PHN2ZyB4bWxucz0iaHR0cDovL3d3dy53My5vcmcvMjAwMC9zdmciIHZpZXdCb3g9IjAgMCAxOCA3IiB2ZXJzaW9uPSIxLjEiPiYjeGE7ICA8c3R5bGU+JiN4YTsgICAgc3ZnIHsmI3hhOyAgICAgIHNoYXBlLXJlbmRlcmluZzogY3Jpc3BFZGdlczsmI3hhOyAgICB9JiN4YTsgIDwvc3R5bGU+JiN4YTsgIDxwYXRoIGZpbGw9InJnYmEoMjU1LCAyNTUsIDI1NSkiIGQ9Ik0wIDAgdjcgaDE4IHYtNiBoLTIgdi0xIGgxNiBaJiMxMDsgICAgICAgICAgIE0xIDEgaDQgdjMgaC0yIHYxIGgyIHYxIGgtNCBaIE0zIDIgdjEgaDEgdi0xIFomIzEwOyAgICAgICAgICAgTTYgMSBoMiB2MyBoMSB2LTMgaDEgdjMgaDEgdi0zIGgxIHY1IGgtNiBaJiMxMDsgICAgICAgICAgIE0xMyAxIGgyIHYxIGgyIHYxIGgtMiB2MiBoMSB2LTEgaDEgdjIgaC00IFoiLz4mI3hhOzwvc3ZnPg==;" vertex="1" parent="1">
          <mxGeometry x="267" y="413" width="36" height="14" as="geometry" />
        </mxCell>
      </root>
    </mxGraphModel>
  </diagram>
</mxfile>
